<svg width="128" height="128" viewBox="0 0 128 128" fill="none" xmlns="http://www.w3.org/2000/svg">
<g clip-path="url(#clip0_95_85)">
<path d="M127.868 118.765H105.533V77.3993C105.533 72.5093 104.607 69.0731 102.889 66.8264C101.171 64.5797 98.7924 63.5224 96.017 63.5224C94.5633 63.5224 92.9774 63.9189 91.5236 64.4475C89.9377 65.1083 88.6161 66.0334 87.2945 67.2229C85.9728 68.4123 84.7834 69.7339 83.7261 71.3199C82.6688 72.9058 81.7437 74.6239 81.0829 76.4741V118.633H58.6156V77.3993C58.6156 72.5093 57.6905 69.0731 55.9724 66.8264C54.2543 64.5797 51.8754 63.5224 49.1001 63.5224C46.0604 63.5224 43.1528 64.7118 40.3775 67.0907C37.6021 69.4696 35.4875 72.6415 34.1659 76.6063V118.765H11.8308V45.2843L31.9192 56.3857V57.5752C34.5624 53.0817 38.2629 49.6455 42.8885 47.3988C47.5141 45.0199 52.9327 43.9626 59.0121 43.9626C62.0518 43.9626 64.8272 44.3591 67.0739 45.1521C69.3206 45.9451 71.303 46.8702 73.0211 48.1918C74.7392 49.5134 76.0608 50.9672 77.1181 52.6852C78.1754 54.4033 78.8362 56.2536 79.3648 58.236C82.1402 53.6104 85.8407 50.1742 90.4663 47.6631C95.0919 45.1521 100.246 43.9626 106.193 43.9626C110.819 43.9626 114.652 44.7556 117.427 46.6059C120.335 48.3239 122.449 50.5707 124.035 53.346C125.621 56.1214 126.678 59.1611 127.207 62.333C127.736 65.637 128 68.8088 128 71.8485V118.765H127.868Z" fill="#017AC1"/>
<path d="M31.8507 10V41.7185H31.7185L0 10H31.8507Z" fill="#F51C28"/>
<path d="M31.8515 56.3853L11.8953 36.2969V50.9667V73.3018L31.8515 56.3853Z" fill="#017AC1"/>
</g>
<defs>
<clipPath id="clip0_95_85">
<rect width="128" height="128" fill="white"/>
</clipPath>
</defs>
</svg>
